<?xml version="1.0" encoding="utf-8"?><svg viewBox="0 0 24 24" xmlns="http://www.w3.org/2000/svg" xmlns:xlink="http://www.w3.org/1999/xlink"><style>:root>svg{display:none}:root>svg:target{display:block}</style><svg viewBox="0 0 24 24" id="airplane-icon" xmlns="http://www.w3.org/2000/svg"><path d="M8.747 21.75H7.5a.75.75 0 0 1-.683-1.06l3.021-6.667-4.537-.101-1.655 2.005c-.315.396-.567.573-1.209.573h-.84a.828.828 0 0 1-.689-.33c-.112-.151-.221-.406-.114-.77l.929-3.328a.851.851 0 0 1 .024-.074v-.007a.69.69 0 0 1-.024-.075l-.93-3.35c-.101-.356.009-.605.12-.752A.789.789 0 0 1 1.55 7.5h.887c.48 0 .945.215 1.219.563l1.62 1.97 4.562-.067-3.02-6.656A.75.75 0 0 1 7.5 2.25h1.26a1.172 1.172 0 0 1 .908.46l5.862 7.124 2.708-.07c.198-.012.747-.015.874-.015 2.59.001 4.138.842 4.138 2.251 0 .443-.178 1.266-1.363 1.789-.7.31-1.634.466-2.776.466-.125 0-.673-.004-.874-.015l-2.708-.072-5.876 7.125a1.174 1.174 0 0 1-.906.457Z"/></svg><svg viewBox="0 0 24 24" id="bed-icon" xmlns="http://www.w3.org/2000/svg"><path d="M20.25 10.814a3.724 3.724 0 0 0-1.5-.314H5.25a3.754 3.754 0 0 0-3.75 3.75v5.25a.75.75 0 1 0 1.5 0v-.375a.38.38 0 0 1 .375-.375h17.25a.38.38 0 0 1 .375.375v.375a.75.75 0 1 0 1.5 0v-5.25a3.754 3.754 0 0 0-2.25-3.436ZM17.625 3.75H6.375A2.625 2.625 0 0 0 3.75 6.375V9.75a.187.187 0 0 0 .24.18c.409-.12.833-.18 1.26-.18h.198a.188.188 0 0 0 .188-.166A1.5 1.5 0 0 1 7.125 8.25H9.75a1.5 1.5 0 0 1 1.49 1.334.188.188 0 0 0 .188.166h1.147a.187.187 0 0 0 .187-.166A1.5 1.5 0 0 1 14.25 8.25h2.625a1.5 1.5 0 0 1 1.49 1.334.188.188 0 0 0 .188.166h.197c.427 0 .851.06 1.26.18a.188.188 0 0 0 .24-.18V6.375a2.625 2.625 0 0 0-2.625-2.625Z"/></svg></svg>