<?xml version="1.0" encoding="utf-8"?><svg viewBox="0 0 24 24" xmlns="http://www.w3.org/2000/svg" xmlns:xlink="http://www.w3.org/1999/xlink"><style>:root>svg{display:none}:root>svg:target{display:block}</style><svg viewBox="0 0 24 24" id="airplane-icon" xmlns="http://www.w3.org/2000/svg"><path d="M8.747 21.75H7.5a.75.75 0 0 1-.683-1.06l3.021-6.667-4.537-.101-1.655 2.005c-.315.396-.567.573-1.209.573h-.84a.828.828 0 0 1-.689-.33c-.112-.151-.221-.406-.114-.77l.929-3.328a.851.851 0 0 1 .024-.074v-.007a.69.69 0 0 1-.024-.075l-.93-3.35c-.101-.356.009-.605.12-.752A.789.789 0 0 1 1.55 7.5h.887c.48 0 .945.215 1.219.563l1.62 1.97 4.562-.067-3.02-6.656A.75.75 0 0 1 7.5 2.25h1.26a1.172 1.172 0 0 1 .908.46l5.862 7.124 2.708-.07c.198-.012.747-.015.874-.015 2.59.001 4.138.842 4.138 2.251 0 .443-.178 1.266-1.363 1.789-.7.31-1.634.466-2.776.466-.125 0-.673-.004-.874-.015l-2.708-.072-5.876 7.125a1.174 1.174 0 0 1-.906.457Z"/></svg><svg viewBox="0 0 24 24" id="bed-icon" xmlns="http://www.w3.org/2000/svg"><path d="M20.25 10.814a3.724 3.724 0 0 0-1.5-.314H5.25a3.754 3.754 0 0 0-3.75 3.75v5.25a.75.75 0 1 0 1.5 0v-.375a.38.38 0 0 1 .375-.375h17.25a.38.38 0 0 1 .375.375v.375a.75.75 0 1 0 1.5 0v-5.25a3.754 3.754 0 0 0-2.25-3.436ZM17.625 3.75H6.375A2.625 2.625 0 0 0 3.75 6.375V9.75a.187.187 0 0 0 .24.18c.409-.12.833-.18 1.26-.18h.198a.188.188 0 0 0 .188-.166A1.5 1.5 0 0 1 7.125 8.25H9.75a1.5 1.5 0 0 1 1.49 1.334.188.188 0 0 0 .188.166h1.147a.187.187 0 0 0 .187-.166A1.5 1.5 0 0 1 14.25 8.25h2.625a1.5 1.5 0 0 1 1.49 1.334.188.188 0 0 0 .188.166h.197c.427 0 .851.06 1.26.18a.188.188 0 0 0 .24-.18V6.375a2.625 2.625 0 0 0-2.625-2.625Z"/></svg><svg viewBox="0 0 20 21" id="facebook-icon" xmlns="http://www.w3.org/2000/svg"><path fill-rule="evenodd" clip-rule="evenodd" d="M1 10.05c0 4.475 3.25 8.195 7.5 8.95v-6.5H6.25V10H8.5V8c0-2.25 1.45-3.5 3.5-3.5.65 0 1.35.1 2 .2V7h-1.15c-1.1 0-1.35.55-1.35 1.25V10h2.4l-.4 2.5h-2V19c4.25-.755 7.5-4.475 7.5-8.95C19 5.072 14.95 1 10 1s-9 4.072-9 9.05Z"/></svg><svg viewBox="0 0 18 18" id="facebook2-icon" xmlns="http://www.w3.org/2000/svg"><path fill-rule="evenodd" clip-rule="evenodd" d="M0 9.05c0 4.475 3.25 8.195 7.5 8.95v-6.5H5.25V9H7.5V7c0-2.25 1.45-3.5 3.5-3.5.65 0 1.35.1 2 .2V6h-1.15c-1.1 0-1.35.55-1.35 1.25V9h2.4l-.4 2.5h-2V18c4.25-.755 7.5-4.475 7.5-8.95C18 4.072 13.95 0 9 0S0 4.072 0 9.05Z"/></svg><svg viewBox="0 0 20 21" id="instagram-icon" xmlns="http://www.w3.org/2000/svg"><path d="M9.498 7.665A2.84 2.84 0 0 0 6.663 10.5a2.84 2.84 0 0 0 2.835 2.835 2.84 2.84 0 0 0 2.834-2.835 2.84 2.84 0 0 0-2.834-2.835Zm8.501 2.835c0-1.174.011-2.337-.055-3.509-.066-1.36-.376-2.568-1.371-3.564-.998-.997-2.204-1.305-3.564-1.371C11.835 1.99 10.672 2 9.5 2c-1.174 0-2.337-.011-3.509.055-1.36.066-2.568.376-3.564 1.371-.997.998-1.305 2.203-1.371 3.564C.99 8.165 1 9.328 1 10.5c0 1.172-.011 2.337.055 3.509.066 1.36.376 2.568 1.371 3.564.998.997 2.203 1.305 3.564 1.371C7.165 19.01 8.328 19 9.5 19c1.174 0 2.337.011 3.509-.055 1.36-.066 2.568-.376 3.564-1.371.997-.998 1.305-2.204 1.371-3.564.068-1.172.055-2.335.055-3.509Zm-8.501 4.361A4.355 4.355 0 0 1 5.137 10.5a4.355 4.355 0 0 1 4.36-4.361A4.355 4.355 0 0 1 13.86 10.5a4.355 4.355 0 0 1-4.361 4.361Zm4.54-7.882a1.017 1.017 0 0 1-1.019-1.019c0-.563.455-1.019 1.019-1.019a1.017 1.017 0 1 1 0 2.038Z"/></svg><svg viewBox="0 0 20 21" id="twitter-icon" xmlns="http://www.w3.org/2000/svg"><path d="M19.703 4.261a7.773 7.773 0 0 1-2.23.611 3.891 3.891 0 0 0 1.707-2.148 7.75 7.75 0 0 1-2.465.942A3.883 3.883 0 0 0 10.1 7.207 11.024 11.024 0 0 1 2.1 3.151 3.883 3.883 0 0 0 3.3 8.334a3.873 3.873 0 0 1-1.759-.486v.05a3.883 3.883 0 0 0 3.114 3.807 3.91 3.91 0 0 1-1.753.066 3.885 3.885 0 0 0 3.627 2.695A7.79 7.79 0 0 1 .78 16.075a10.98 10.98 0 0 0 5.95 1.744c7.142 0 11.046-5.915 11.046-11.045 0-.167-.004-.335-.012-.502a7.892 7.892 0 0 0 1.936-2.008l.002-.003Z"/></svg><svg viewBox="0 0 20 21" id="youtube-icon" xmlns="http://www.w3.org/2000/svg"><g clip-path="url(#ga)"><path d="M19.583 5.57a2.322 2.322 0 0 0-.638-1.059 2.542 2.542 0 0 0-1.116-.618c-1.564-.413-7.834-.413-7.834-.413a63.852 63.852 0 0 0-7.825.392 2.633 2.633 0 0 0-1.115.633A2.414 2.414 0 0 0 .406 5.57 24.242 24.242 0 0 0 0 10.147c-.01 1.534.125 3.067.406 4.579.114.399.337.763.646 1.057.31.294.694.507 1.118.62 1.585.41 7.825.41 7.825.41 2.617.03 5.233-.1 7.835-.39.418-.109.801-.322 1.115-.62.304-.288.524-.654.637-1.058A23.65 23.65 0 0 0 20 10.166a22.148 22.148 0 0 0-.417-4.597ZM8 13V7.296l5.217 2.853L8 13.001Z"/></g><defs><clipPath id="ga"><path transform="translate(0 .147)" d="M0 0h20v20H0z"/></clipPath></defs></svg></svg>